<svg width="151" height="40" viewBox="0 0 151 40" fill="none" xmlns="http://www.w3.org/2000/svg">
<g clip-path="url(#clip0)">
<path d="M127.961 30.4917V14.7584C127.961 14.4556 128.212 14.2084 128.519 14.2084H131.204C131.511 14.2084 131.761 14.4556 131.761 14.7584V30.4917C131.761 30.7945 131.511 31.0417 131.204 31.0417H128.519C128.212 31.0417 127.961 30.7945 127.961 30.4917Z" fill="#0177FE"/>
<path d="M129.861 11.6417C131.066 11.6417 132.043 10.6779 132.043 9.48894C132.043 8.3 131.066 7.33617 129.861 7.33617C128.657 7.33617 127.68 8.3 127.68 9.48894C127.68 10.6779 128.657 11.6417 129.861 11.6417Z" fill="#0177FE"/>
<path d="M60.5607 11.8667C60.5607 10.3945 61.726 9.49723 63.6907 9.49723H71.3977C71.6454 9.49723 71.8453 9.30001 71.8453 9.05556V6.34445C71.8453 6.10001 71.6454 5.90279 71.3977 5.90279H63.6907C59.7247 5.90279 56.9239 8.34445 56.9239 11.8639C56.9239 18.6861 68.9319 19.7639 68.9319 24.7195C68.9319 26.3 67.623 27.45 65.7653 27.45H63.3276C61.605 27.45 60.1976 26.0611 60.1976 24.3611V23.475C60.1976 23.1722 59.947 22.925 59.6402 22.925H57.1182C56.8113 22.925 56.5608 23.1722 56.5608 23.475V24.3611C56.5608 28.05 59.5924 31.0417 63.3304 31.0417H65.7681C69.6244 31.0417 72.5715 28.3111 72.5715 24.7222C72.5687 17.1445 60.5607 15.6722 60.5607 11.8667Z" fill="#0177FE"/>
<path d="M121.42 6.45556V14.2083H115.599C111.996 14.2083 109.049 17.0806 109.049 20.6722V24.5806C109.049 28.1361 111.996 31.0444 115.599 31.0444H124.502C124.809 31.0444 125.059 30.7972 125.059 30.4944V6.45556C125.059 6.15279 124.809 5.90556 124.502 5.90556H121.98C121.67 5.90556 121.42 6.15279 121.42 6.45556ZM121.42 27.45H115.599C113.997 27.45 112.688 26.1583 112.688 24.5778V20.6722C112.688 19.0917 113.997 17.8 115.599 17.8H121.42V27.45Z" fill="#0177FE"/>
<path d="M102.507 14.7584V27.4501H98.1525C96.5143 27.4139 95.242 26.2278 95.242 24.6139V14.7584C95.242 14.4556 94.9915 14.2084 94.6846 14.2084H92.1626C91.8558 14.2084 91.6052 14.4556 91.6052 14.7584V24.6139C91.6052 28.1639 94.5214 31.0417 98.1187 31.0417H102.507V33.5723C102.507 35.189 100.914 36.3723 99.2756 36.4084H95.8077C95.5009 36.4084 95.2504 36.6556 95.2504 36.9584V39.4473C95.2504 39.7501 95.5009 39.9973 95.8077 39.9973H99.2756C103.053 39.9973 106.144 36.9473 106.144 33.2195V14.7584C106.144 14.4556 105.893 14.2084 105.586 14.2084H103.064C102.758 14.2084 102.507 14.4556 102.507 14.7584Z" fill="#0177FE"/>
<path d="M143.885 14.2084H140.974C140.957 14.2084 140.943 14.2112 140.926 14.2112C137.309 14.2362 134.424 17.0612 134.424 20.6362V20.6723V24.5806V24.6167C134.424 28.2084 137.335 31.0445 140.974 31.0445H143.885C143.902 31.0445 143.916 31.0417 143.933 31.0417C147.55 31.0167 150.435 28.1917 150.435 24.6167V24.5806V20.6723V20.6362C150.435 17.0445 147.524 14.2084 143.885 14.2084ZM146.795 24.5889C146.79 26.1917 145.529 27.4389 143.904 27.4501C143.899 27.4501 143.89 27.4501 143.885 27.4501H140.974C140.974 27.4501 140.974 27.4501 140.971 27.4501C140.254 27.4334 139.606 27.1973 139.105 26.8001C138.463 26.2778 138.064 25.4862 138.064 24.5778V20.6612C138.069 19.0584 139.33 17.8112 140.955 17.8001C140.96 17.8001 140.969 17.8001 140.974 17.8001H143.885C143.885 17.8001 143.885 17.8001 143.888 17.8001C144.605 17.8167 145.253 18.0528 145.754 18.4501C146.396 18.9723 146.795 19.7639 146.795 20.6723V24.5889V24.5889Z" fill="#0177FE"/>
<path d="M77.8267 5.90556H75.3047C74.9978 5.90556 74.7473 6.15279 74.7473 6.45556V30.4917C74.7473 30.7944 74.9978 31.0417 75.3047 31.0417H77.8267C78.1335 31.0417 78.3841 30.7944 78.3841 30.4917V6.45556C78.3841 6.15279 78.1335 5.90556 77.8267 5.90556Z" fill="#0177FE"/>
<path d="M84.4134 22.6251L89.3703 14.8834C89.5589 14.5889 89.3449 14.2084 88.9931 14.2084H85.9165C85.6519 14.2084 85.407 14.3389 85.2606 14.5584L80.6866 21.5001C80.6049 21.6251 80.5599 21.7723 80.5599 21.9195V23.3334C80.5599 23.4834 80.6049 23.6278 80.6866 23.7528L85.2606 30.6917C85.4042 30.9112 85.6519 31.0417 85.9165 31.0417H88.9678C89.3309 31.0417 89.5504 30.6473 89.3562 30.3445L84.4134 22.6251Z" fill="#0177FE"/>
<path d="M1.17096 35.4945C1.17096 37.6862 2.64592 39.2001 4.76548 39.6723C5.04696 39.7334 5.82385 40 10.6963 40C15.1465 40 40.5474 40 40.5474 40V14.4862C2.69096 25.6778 1.17096 33.2667 1.17096 35.4945Z" fill="#0177FE"/>
<path d="M0 20C37.2259 12.85 45.2481 8.50833 45.2481 5.91389C45.2481 3.71667 40.5502 3.09444 40.5502 3.09444V0H0V20Z" fill="#0177FE"/>
</g>
<defs>
<clipPath id="clip0">
<rect width="150.435" height="40" fill="white"/>
</clipPath>
</defs>
</svg>
