<svg width="130" height="33" viewBox="0 0 130 33" fill="none" xmlns="http://www.w3.org/2000/svg">
<path d="M37.023 19.568V3.13186H45.4639C48.3666 3.13186 50.2763 4.88878 50.2763 7.81699C50.2763 10.7197 48.3793 12.5785 45.4639 12.5785H42.5611C41.5044 12.5785 40.4222 12.7186 39.4292 13.2405V19.568H37.023V19.568ZM45.4639 10.1596C47.0298 10.1596 47.8828 9.40841 47.8828 7.81699C47.8828 6.16192 47.0425 5.52535 45.4639 5.52535H39.4292V10.8089C40.4222 10.2359 41.4789 10.1468 42.5611 10.1468H45.4639V10.1596Z" fill="black"/>
<path d="M60.2323 5.55081V19.568H57.9025V5.55081H52.0333V3.13186H66.0251V5.55081H60.2323Z" fill="black"/>
<path d="M69.1059 19.568V3.13186H71.4612V19.568H69.1059V19.568Z" fill="black"/>
<path d="M84.74 14.9848L79.1637 8.26262V19.5681H76.8084V5.43627L74.886 3.11916H77.9924L84.7146 11.1908L91.5258 3.11916H94.6323L92.7226 5.43627V19.5681H90.3673V8.26262L84.74 14.9848Z" fill="black"/>
<path d="M97.8279 13.1769V3.11916H100.209V13.1769C100.209 16.0033 102.016 17.5438 105.212 17.5438C108.408 17.5438 110.215 16.0033 110.215 13.1769V3.11916H112.596V13.1769C112.596 17.4547 109.859 19.95 105.212 19.95C100.565 19.95 97.8279 17.4547 97.8279 13.1769Z" fill="black"/>
<path d="M122.667 19.9373C120.146 19.9373 117.549 18.7024 115.894 16.5635L117.612 14.9594C118.465 15.9906 120.082 17.5311 122.667 17.5311C125.086 17.5311 127.53 16.6144 127.53 14.552C127.53 12.0439 125.035 12.0439 122.667 12.0439C118.745 12.0439 116.606 10.5925 116.606 7.79161C116.606 5.13076 119.14 2.63542 122.667 2.63542C125.149 2.63542 127.314 3.33565 129.274 5.24535L127.772 7.015C126.015 5.57636 124.767 5.06711 122.667 5.06711C120.808 5.06711 119.267 6.35297 119.267 7.77888C119.267 8.77193 119.968 9.67585 122.768 9.67585C128.523 9.67585 130 11.4582 130 14.5647C130 17.8621 126.83 19.9373 122.667 19.9373Z" fill="black"/>
<path d="M104.614 27.9324C104.499 27.9451 104.372 27.9451 104.257 27.9451H102.386V30.3131H101.062V22.4451H104.245C106.256 22.4451 107.415 23.4255 107.415 25.1315C107.415 26.3919 106.829 27.2703 105.785 27.6777L107.542 30.3131H106.052L104.614 27.9324ZM104.245 26.7483C105.454 26.7483 106.154 26.2264 106.154 25.1569C106.154 24.1257 105.454 23.6292 104.245 23.6292H102.373V26.7356H104.245V26.7483Z" fill="black"/>
<path d="M109.184 30.313V22.445H110.508V30.3003L109.184 30.313Z" fill="black"/>
<path d="M115.805 22.445C118.173 22.445 119.866 24.1001 119.866 26.379C119.866 28.6579 118.147 30.313 115.767 30.313H112.584V22.445H115.805ZM113.895 29.129H115.83C117.358 29.129 118.529 27.9959 118.529 26.4045C118.529 24.8003 117.332 23.6545 115.779 23.6545H113.895V29.129Z" fill="black"/>
<path d="M122.603 23.6417V25.7679H126.448V26.9646H122.603V29.1289H127.021V30.3257H121.266V22.4577H126.881V23.6417H122.603V23.6417Z" fill="black"/>
<path d="M18.2442 5.3981C18.4097 5.24533 18.4861 5.18167 18.6516 5.04163C19.9375 5.20713 21.1852 5.6018 22.3437 6.20018C23.5914 6.83674 24.7117 7.68974 25.6666 8.70825C26.6087 9.72676 27.3599 10.9235 27.8818 12.2094C28.4166 13.5334 28.6967 14.9466 28.6839 16.3725C28.6967 17.8112 28.4166 19.2498 27.8818 20.5866C27.3599 21.8725 26.6087 23.0565 25.6666 24.0877C24.7117 25.1062 23.5914 25.9592 22.3437 26.5958C21.1852 27.1942 19.9375 27.5888 18.6516 27.7543C18.4861 27.6143 18.4097 27.5379 18.2442 27.3979V25.4627C18.3588 25.3226 18.4352 25.2335 18.537 25.1189C19.5046 24.9534 20.4467 24.6352 21.3125 24.1514C22.2419 23.6421 23.0694 22.9801 23.7696 22.2035C24.4698 21.4269 25.0428 20.5357 25.4374 19.5681C25.8448 18.5623 26.0485 17.4801 26.0485 16.3852C26.0485 15.3158 25.8448 14.2464 25.4374 13.2406C25.0428 12.273 24.4826 11.3691 23.7696 10.6052C23.0567 9.82861 22.2291 9.16658 21.3125 8.65733C20.4467 8.18627 19.5046 7.85525 18.537 7.70248C18.4225 7.56243 18.3588 7.47331 18.2442 7.346V5.3981V5.3981Z" fill="black"/>
<path d="M15.6089 27.3852C15.4433 27.5252 15.367 27.6016 15.2014 27.7416C13.9156 27.5761 12.6679 27.1815 11.5094 26.5831C10.2617 25.9465 9.14133 25.0935 8.18648 24.075C7.24436 23.0565 6.48048 21.8725 5.97123 20.5739C4.90179 17.8876 4.88906 14.8957 5.95849 12.1967C6.48048 10.9108 7.23163 9.71406 8.17375 8.69556C9.1286 7.67705 10.249 6.82405 11.4966 6.18748C12.6552 5.58911 13.9029 5.19444 15.1887 5.02893C15.3542 5.18171 15.4306 5.24536 15.5961 5.38541V7.32057C15.4815 7.46062 15.4179 7.54974 15.3033 7.67705C14.323 7.84256 13.3809 8.16084 12.5151 8.64463C11.5857 9.12842 10.7455 9.79045 10.0453 10.5798C9.35776 11.3564 8.79758 12.2603 8.41564 13.2279C8.00824 14.221 7.80454 15.2904 7.80454 16.3726C7.79181 17.4674 8.00824 18.5496 8.41564 19.5554C8.81032 20.523 9.35776 21.4142 10.0453 22.1908C11.4202 23.7313 13.2663 24.7498 15.3033 25.1063C15.4179 25.2336 15.4815 25.3227 15.5961 25.45L15.6089 27.3852Z" fill="black"/>
<path d="M15.6089 32.4258C15.4561 32.5658 15.3797 32.6422 15.2142 32.7822C13.1772 32.5658 11.2675 32.0438 9.49787 31.1781C7.63909 30.2996 5.95856 29.0901 4.54538 27.5878C3.14493 26.111 2.01184 24.3795 1.23523 22.4953C0.407692 20.5601 -0.0124419 18.4849 0.000289393 16.3715C-0.0124419 14.2709 0.394961 12.1957 1.20977 10.2478C1.98638 8.36352 3.11947 6.63206 4.51991 5.16796C5.94582 3.69112 7.62636 2.46891 9.48514 1.59045C11.2803 0.711988 13.2282 0.177272 15.2142 0.0117645C15.367 0.164541 15.4434 0.228197 15.6089 0.368242V2.29067C15.4943 2.41799 15.4179 2.50711 15.2906 2.64715C13.6356 2.81266 12.0187 3.28372 10.5291 4.03487C9.00135 4.79875 7.61363 5.81725 6.41688 7.05219C5.2456 8.28713 4.30348 9.71304 3.65418 11.279C2.97942 12.8831 2.63568 14.6146 2.64841 16.3588C2.63568 18.1157 2.97942 19.8472 3.65418 21.4641C4.30348 23.0428 5.23287 24.4814 6.40415 25.7291C7.58817 26.964 8.97588 27.9952 10.5164 28.7591C12.0059 29.5103 13.6228 29.9813 15.2779 30.1468C15.4052 30.2869 15.4689 30.376 15.5962 30.5033V32.4258H15.6089Z" fill="black"/>
<path d="M18.2442 0.356478C18.397 0.203701 18.4861 0.140045 18.6389 0C20.625 0.178239 22.5729 0.712955 24.368 1.57869C26.265 2.50807 27.92 3.70482 29.3205 5.15619C30.7337 6.63303 31.854 8.35176 32.6306 10.2487C33.4327 12.1839 33.8528 14.2718 33.8401 16.3725C33.8401 18.5496 33.4327 20.5993 32.6306 22.509C31.0392 26.3157 28.0983 29.4094 24.3553 31.1791C22.5601 32.0321 20.625 32.5795 18.6389 32.7832C18.4861 32.6432 18.397 32.5668 18.2442 32.4267V30.5043C18.3715 30.377 18.4352 30.2879 18.5625 30.1478C20.2176 29.9823 21.8217 29.5112 23.3113 28.7601C24.8518 27.9962 26.2522 26.9777 27.4363 25.73C28.6075 24.4951 29.5497 23.0437 30.1862 21.4778C31.523 18.2058 31.523 14.5519 30.1862 11.28C29.5369 9.71401 28.5948 8.27537 27.4363 7.04043C26.2522 5.79276 24.8518 4.77425 23.3113 4.01037C21.8217 3.25922 20.2176 2.80089 18.5625 2.62266C18.4352 2.49534 18.3715 2.40622 18.2442 2.26618V0.356478V0.356478Z" fill="black"/>
</svg>
