<svg width="162" height="26" viewBox="0 0 162 26" fill="none" xmlns="http://www.w3.org/2000/svg">
<path d="M0 0V26H8.716V24.12H2.224V1.88H8.716V0H0ZM13.457 20.755L14.963 18.941C17.206 21.005 19.357 22.037 22.337 22.037C25.225 22.037 27.13 20.473 27.13 18.314V18.251C27.13 16.218 26.054 15.061 21.538 14.091C16.591 12.996 14.318 11.369 14.318 7.771V7.708C14.318 4.268 17.298 1.733 21.385 1.733C24.518 1.733 26.76 2.64 28.942 4.423L27.529 6.333C25.532 4.673 23.535 3.954 21.322 3.954C18.527 3.954 16.745 5.518 16.745 7.49V7.553C16.745 9.617 17.851 10.775 22.583 11.807C27.375 12.871 29.587 14.654 29.587 18.001V18.064C29.587 21.819 26.515 24.259 22.244 24.259C18.834 24.259 16.038 23.101 13.457 20.755V20.755ZM33.459 15.936V15.873C33.459 11.306 36.962 7.427 41.601 7.427C44.612 7.427 46.486 8.709 47.961 10.305L46.394 11.995C45.134 10.649 43.721 9.555 41.57 9.555C38.344 9.555 35.886 12.339 35.886 15.812V15.874C35.886 19.379 38.406 22.163 41.724 22.163C43.752 22.163 45.319 21.131 46.578 19.753L48.083 21.193C46.486 23.008 44.581 24.321 41.601 24.321C36.961 24.321 33.459 20.473 33.459 15.936V15.936ZM52.386 24.122H58.961V1.91H52.385V0.032H61.203V26H52.385L52.386 24.122ZM67.466 9.493L68.206 8.6C69.31 9.617 70.368 10.124 71.834 10.124C73.254 10.124 74.191 9.354 74.191 8.292V8.262C74.191 7.262 73.663 6.692 71.441 6.215C69.007 5.675 67.889 4.875 67.889 3.105V3.075C67.889 1.382 69.355 0.135 71.365 0.135C72.907 0.135 74.01 0.581 75.085 1.459L74.388 2.398C73.406 1.582 72.423 1.228 71.335 1.228C69.96 1.228 69.083 1.998 69.083 2.968V2.998C69.083 4.014 69.627 4.583 71.955 5.091C74.313 5.614 75.401 6.491 75.401 8.139V8.169C75.401 10.016 73.89 11.217 71.788 11.217C70.11 11.217 68.735 10.647 67.466 9.493V9.493ZM81.083 1.413H77.531V0.289H85.844V1.413H82.292V11.062H81.083V1.412V1.413ZM94.187 7.107L91.784 1.627L89.365 7.107H94.187ZM91.24 0.213H92.358L97.18 11.063H95.895L94.655 8.216H88.896L87.642 11.063H86.418L91.24 0.213ZM100.02 0.289H101.139L107.805 8.924V0.288H108.968V11.063H108.016L101.184 2.227V11.063H100.02V0.289ZM113.91 1.413V9.939H116.389C119.063 9.939 120.772 8.092 120.772 5.707V5.676C120.772 3.29 119.063 1.413 116.389 1.413H113.91V1.413ZM112.715 0.289H116.389C119.713 0.289 122.011 2.613 122.011 5.645V5.675C122.011 8.708 119.713 11.063 116.389 11.063H112.715V0.289ZM131.245 7.107L128.842 1.627L126.424 7.107H131.246H131.245ZM128.298 0.213H129.417L134.239 11.063H132.954L131.714 8.216H125.955L124.701 11.063H123.476L128.298 0.213V0.213ZM141.22 5.783C142.807 5.783 143.941 4.953 143.941 3.568V3.536C143.941 2.212 142.943 1.413 141.235 1.413H137.97V5.783H141.22V5.783ZM136.777 0.29H141.326C142.626 0.29 143.669 0.69 144.334 1.367C144.848 1.89 145.15 2.645 145.15 3.491V3.523C145.15 5.307 143.941 6.354 142.278 6.662L145.527 11.064H144.062L140.993 6.878H137.97V11.064H136.777V0.289V0.29ZM149.653 1.414V9.94H152.132C154.807 9.94 156.515 8.093 156.515 5.708V5.677C156.515 3.291 154.807 1.414 152.132 1.414H149.653V1.414ZM148.46 0.289H152.132C155.457 0.289 157.755 2.613 157.755 5.645V5.675C157.755 8.708 155.458 11.063 152.132 11.063H148.46V0.289ZM67.466 20.46V20.43C67.466 17.382 69.703 14.857 72.816 14.857C74.736 14.857 75.885 15.551 76.943 16.567L76.126 17.459C75.236 16.597 74.237 15.982 72.802 15.982C70.458 15.982 68.705 17.92 68.705 20.398V20.43C68.705 22.923 70.473 24.878 72.802 24.878C74.252 24.878 75.205 24.308 76.217 23.323L77.003 24.108C75.9 25.246 74.691 26 72.771 26C69.719 26 67.466 23.553 67.466 20.459V20.46ZM89.049 20.46V20.43C89.049 17.982 87.295 15.982 84.877 15.982C82.459 15.982 80.736 17.952 80.736 20.398V20.43C80.736 22.876 82.488 24.878 84.907 24.878C87.327 24.878 89.049 22.908 89.049 20.46ZM79.496 20.46V20.43C79.496 17.459 81.688 14.857 84.907 14.857C88.127 14.857 90.289 17.428 90.289 20.398V20.43C90.289 23.4 88.097 26 84.877 26C81.658 26 79.497 23.43 79.497 20.46H79.496ZM92.796 20.46V20.43C92.796 17.475 94.928 14.857 98.101 14.857C99.885 14.857 100.988 15.38 102.046 16.289L101.276 17.212C100.459 16.489 99.552 15.982 98.056 15.982C95.713 15.982 94.035 17.997 94.035 20.398V20.43C94.035 23 95.652 24.908 98.222 24.908C99.432 24.908 100.55 24.431 101.276 23.831V21.152H98.056V20.06H102.424V24.354C101.261 25.4092 99.7483 25.9956 98.178 26C94.851 26 92.796 23.537 92.796 20.459V20.46ZM105.869 15.042H106.988L113.653 23.677V15.04H114.817V25.815H113.865L107.033 16.979V25.815H105.869V15.04V15.042ZM118.67 25.817H119.864V15.04H118.67V25.815V25.817ZM126.514 16.166H122.963V15.04H131.276V16.163H127.724V25.813H126.514V16.163V16.166ZM134.131 25.816H135.325V15.042H134.131V25.817V25.816ZM148.112 20.46V20.43C148.112 17.982 146.359 15.982 143.94 15.982C141.522 15.982 139.799 17.952 139.799 20.398V20.43C139.799 22.876 141.552 24.878 143.971 24.878C146.389 24.878 148.112 22.908 148.112 20.46ZM138.559 20.46V20.43C138.559 17.459 140.751 14.857 143.971 14.857C147.19 14.857 149.352 17.428 149.352 20.398V20.43C149.352 23.4 147.16 26 143.94 26C140.721 26 138.559 23.43 138.559 20.46ZM152.478 15.042H153.597L160.262 23.677V15.04H161.427V25.815H160.474L153.643 16.979V25.815H152.479L152.478 15.04V15.042Z" fill="black"/>
</svg>
