<svg width="148" height="34" viewBox="0 0 148 34" fill="none" xmlns="http://www.w3.org/2000/svg">
<path fill-rule="evenodd" clip-rule="evenodd" d="M16.9336 33.8673C26.2844 33.8673 33.8673 26.2844 33.8673 16.9336C33.8673 7.58288 26.2844 0 16.9336 0C7.58288 0 0 7.58288 0 16.9336C0 26.2844 7.58288 33.8673 16.9336 33.8673ZM27.9879 19.8734C27.9879 19.9343 27.9506 19.9919 27.8931 20.0156C27.551 20.1612 26.386 20.6964 25.8983 21.3737C25.6276 21.7502 25.3709 22.1621 25.113 22.5759L25.1129 22.576C24.1901 24.057 23.2515 25.5631 21.5971 25.5631H12.7713C9.64199 25.5631 7.10871 23.0196 7.10871 19.8801V19.7785C7.10871 19.6939 7.17645 19.6261 7.26112 19.6261H12.182C12.2802 19.6261 12.3514 19.7176 12.3412 19.8124C12.3073 20.1342 12.3649 20.4593 12.5173 20.7573C12.8086 21.35 13.4148 21.7225 14.0684 21.7225H16.5035V19.8226H14.0955C13.9736 19.8226 13.8991 19.6803 13.9702 19.5787L13.9703 19.5786C13.9974 19.538 14.0244 19.4974 14.0583 19.45C14.2852 19.1249 14.6103 18.6237 14.9354 18.0513C15.1556 17.6652 15.3689 17.252 15.5417 16.8389C15.5631 16.7917 15.5818 16.7433 15.6004 16.6951C15.6112 16.6672 15.6219 16.6393 15.6331 16.612L15.6637 16.5273C15.7005 16.4259 15.736 16.3283 15.7652 16.2326C15.7869 16.1654 15.8058 16.0967 15.8246 16.0284L15.8247 16.0283C15.8352 15.9901 15.8457 15.952 15.8566 15.9143C15.9379 15.5621 15.9718 15.1895 15.9718 14.8034C15.9718 14.651 15.965 14.4953 15.9515 14.3428C15.9447 14.1769 15.9244 14.011 15.904 13.8484C15.8911 13.7091 15.8657 13.5698 15.8398 13.4276L15.8363 13.4081C15.8024 13.188 15.7516 12.9678 15.6975 12.7477L15.6771 12.663L15.667 12.625L15.667 12.625C15.6302 12.4868 15.5953 12.3556 15.5518 12.216C15.413 11.7418 15.2572 11.2779 15.0878 10.8444C15.0349 10.6944 14.9743 10.5495 14.9149 10.4075L14.888 10.3431C14.8114 10.1566 14.7328 9.98172 14.6582 9.81546L14.6581 9.81542C14.6338 9.76127 14.6099 9.70803 14.5866 9.65562L14.5536 9.58756L14.5535 9.58739C14.5185 9.51552 14.4855 9.4477 14.4545 9.37791L14.4314 9.32816C14.3916 9.24245 14.3514 9.15591 14.3089 9.07649C14.2948 9.04543 14.2795 9.01497 14.2645 8.98509L14.2645 8.98505L14.2644 8.98499C14.2435 8.94322 14.2231 8.9026 14.2073 8.86312L13.9093 8.31447C13.8686 8.23997 13.9364 8.15191 14.0176 8.17223L15.8803 8.67685H15.8871H15.8939L16.1377 8.74459L16.4087 8.82248L16.5069 8.84958V7.74212C16.5069 7.20701 16.9336 6.77351 17.4653 6.77351C17.7295 6.77351 17.9699 6.88189 18.1427 7.058C18.3154 7.23411 18.4238 7.47457 18.4238 7.74212V9.38468L18.6236 9.43887C18.6236 9.43887 18.6541 9.45241 18.6676 9.46257C18.715 9.49983 18.7861 9.55402 18.8742 9.61836C18.9147 9.64919 18.9562 9.6844 19.0007 9.72213L19.0008 9.72221C19.0346 9.75077 19.07 9.78078 19.1079 9.81141C19.2874 9.95704 19.5007 10.1433 19.7344 10.3567C19.7954 10.4109 19.8564 10.465 19.9139 10.5226C20.2153 10.8037 20.5574 11.1356 20.8792 11.5014C20.9634 11.595 21.0448 11.6915 21.1286 11.7908L21.1501 11.8163C21.1797 11.8525 21.2096 11.8884 21.2395 11.9241L21.2395 11.9241C21.3019 11.9987 21.3638 12.0727 21.421 12.1482C21.4442 12.1794 21.4678 12.2108 21.4917 12.2426C21.5795 12.3594 21.6704 12.4803 21.7529 12.6055C21.7766 12.6427 21.8028 12.6807 21.8291 12.7188L21.8291 12.7189C21.8554 12.757 21.8816 12.7951 21.9053 12.8324C22.0374 13.0322 22.1526 13.2388 22.2643 13.4454C22.3117 13.5402 22.3591 13.6452 22.4032 13.7468C22.5251 14.0245 22.6233 14.3056 22.6877 14.5867C22.708 14.6477 22.7215 14.7154 22.7283 14.773V14.7865C22.7486 14.8712 22.7554 14.9592 22.7622 15.0507C22.7893 15.3385 22.7757 15.6298 22.7148 15.9177C22.6877 16.0396 22.6538 16.1581 22.6132 16.2801C22.5725 16.3986 22.5285 16.5205 22.4743 16.639C22.3693 16.8795 22.2474 17.1234 22.1018 17.3503C22.0543 17.4349 22.0002 17.523 21.9426 17.6077C21.8993 17.6702 21.8559 17.7311 21.8138 17.7903L21.8135 17.7906L21.7631 17.8617C21.6852 17.9666 21.6039 18.075 21.5226 18.1732C21.4481 18.2748 21.3702 18.3798 21.2889 18.4679C21.1738 18.6067 21.062 18.7354 20.9435 18.8607C20.8724 18.942 20.7979 19.0267 20.7234 19.1012C20.6634 19.1693 20.6013 19.2308 20.5441 19.2875L20.5441 19.2875L20.5032 19.3281C20.3881 19.4433 20.2899 19.5347 20.2086 19.6092L20.0155 19.7853C19.9884 19.809 19.9512 19.8226 19.9139 19.8226H18.4305V21.7225H20.2966C20.7132 21.7225 21.1094 21.5735 21.4312 21.3026L21.4413 21.2938L21.4413 21.2937C21.5669 21.1839 22.0365 20.7735 22.5861 20.168C22.6064 20.1477 22.6301 20.1308 22.6572 20.124L27.8084 18.6338C27.9032 18.6067 28.0014 18.6779 28.0014 18.7795L27.9879 18.7828V19.8734ZM8.35515 17.5026L8.42966 17.3875L12.8358 10.4955C12.9001 10.3939 13.0525 10.4041 13.1 10.5158C13.8349 12.1652 14.4716 14.2175 14.1735 15.4943C14.0449 16.0193 13.6994 16.7305 13.3065 17.3875C13.2557 17.4823 13.2016 17.5771 13.1406 17.6686C13.1135 17.7092 13.0661 17.7363 13.0153 17.7363H8.48384C8.36192 17.7363 8.2908 17.6042 8.35515 17.506V17.5026Z" fill="black"/>
<path fill-rule="evenodd" clip-rule="evenodd" d="M109.256 24.5031C110.197 24.8756 111.267 25.0619 112.456 25.0619L112.463 25.0551C113.682 25.0551 114.742 24.8384 115.64 24.4049C116.537 23.9748 117.218 23.3922 117.682 22.6607C118.159 21.9292 118.4 21.1604 118.4 20.2223C118.4 19.2841 118.163 18.5154 117.682 17.9193C117.201 17.3232 116.629 16.866 115.965 16.5544C115.318 16.2395 114.468 15.911 113.415 15.5689C112.361 15.2404 111.589 14.9356 111.095 14.6511C110.6 14.3666 110.353 13.9738 110.353 13.4657C110.353 13.0051 110.499 12.6529 110.793 12.4159C111.084 12.1619 111.471 12.0365 111.951 12.0365C112.507 12.0365 112.964 12.1856 113.32 12.4836C113.675 12.7681 113.868 13.1609 113.899 13.6689H118.19C118.112 12.1923 117.523 11.0442 116.425 10.2246C115.328 9.38813 113.851 8.97156 112.087 8.97156C110.322 8.97156 108.893 9.38813 107.796 10.2246C106.699 11.0476 106.15 12.1856 106.15 13.6486C106.15 14.6342 106.387 15.43 106.868 16.043C107.349 16.656 107.921 17.12 108.585 17.4316C109.249 17.7432 110.106 18.0581 111.159 18.3697C111.884 18.5797 112.443 18.766 112.829 18.9285C113.232 19.0911 113.564 19.3011 113.828 19.5551C114.105 19.8091 114.244 20.1274 114.244 20.5169C114.244 20.9809 114.072 21.3467 113.733 21.6142C113.391 21.8682 112.913 21.9935 112.341 21.9935C111.769 21.9935 111.305 21.8445 110.949 21.5465C110.593 21.2349 110.383 20.7878 110.322 20.2053H106.103C106.133 21.2349 106.428 22.1154 106.983 22.847C107.556 23.5785 108.314 24.1306 109.256 24.5031ZM50.3671 25.062C48.8363 25.062 47.4274 24.7199 46.1472 24.0324C44.8806 23.3449 43.8646 22.3932 43.1094 21.1672C42.3677 19.9277 41.9951 18.5425 41.9951 17.0049C41.9951 15.4674 42.3677 14.089 43.1094 12.8664C43.868 11.6437 44.8806 10.6887 46.1472 10.0012C47.4308 9.31368 48.8363 8.97162 50.3671 8.97162C51.8979 8.97162 53.2966 9.31368 54.5666 10.0012C55.8502 10.6887 56.8561 11.6404 57.5808 12.8664C58.3225 14.089 58.6951 15.4674 58.6951 17.0049C58.6951 18.5425 58.3225 19.9277 57.5808 21.1672C56.8391 22.3898 55.8333 23.3449 54.5666 24.0324C53.3 24.7199 51.8979 25.062 50.3671 25.062ZM50.3671 21.5702C51.6642 21.5702 52.7006 21.1537 53.4761 20.3172C54.2652 19.4806 54.6581 18.3766 54.6581 17.0049C54.6581 15.6333 54.2652 14.5157 53.4761 13.6927C52.7039 12.8562 51.6676 12.4396 50.3671 12.4396C49.0666 12.4396 47.9998 12.8494 47.2141 13.669C46.4419 14.4886 46.0558 15.5994 46.0558 17.0015C46.0558 18.4037 46.4419 19.501 47.2141 20.3341C48.0032 21.1537 49.0531 21.5635 50.3671 21.5635V21.5702ZM64.8697 14.187C65.2557 13.6045 65.7908 13.1371 66.4716 12.7781C67.1523 12.4191 67.9482 12.2396 68.8592 12.2396C69.926 12.2396 70.8913 12.5004 71.7583 13.022C72.6253 13.5435 73.3026 14.2886 73.8005 15.2606C74.3119 16.2292 74.5659 17.357 74.5659 18.6405C74.5659 19.9241 74.3119 21.0553 73.8005 22.0408C73.306 23.0094 72.6253 23.7647 71.7583 24.2998C70.8913 24.8213 69.926 25.0821 68.8592 25.0821C67.9617 25.0821 67.1659 24.9026 66.4716 24.5436C65.7908 24.1846 65.2591 23.724 64.8697 23.1551V28.6145H60.9038V12.4191H64.8697V14.187ZM70.5289 18.6388C70.5286 17.6846 70.2508 16.9401 69.6924 16.4019C69.1505 15.8499 68.4799 15.5756 67.6739 15.5756C66.8678 15.5756 66.2142 15.8499 65.6554 16.4019C65.1135 16.954 64.8426 17.7058 64.8426 18.6609C64.8426 19.6159 65.1135 20.3678 65.6554 20.9198C66.2108 21.4719 66.8848 21.7462 67.6739 21.7462C68.463 21.7462 69.1335 21.4719 69.6924 20.9198C70.2475 20.3546 70.5285 19.5931 70.5289 18.6388ZM88.773 19.5787C88.8205 19.1926 88.8442 18.8201 88.8442 18.4611L88.8475 18.4577C88.8475 17.2046 88.5698 16.1073 88.0144 15.1692C87.4725 14.2277 86.7173 13.5063 85.7419 12.9983C84.7699 12.4903 83.6862 12.2363 82.4026 12.2363C81.119 12.2363 79.9811 12.4971 78.9922 13.0186C78.0033 13.5436 77.2277 14.2887 76.6723 15.2573C76.1304 16.2259 75.8595 17.3604 75.8595 18.6575C75.8595 19.9546 76.1372 21.0892 76.6926 22.0578C77.248 23.0298 78.0236 23.7749 79.0125 24.2964C80.0014 24.818 81.1326 25.0788 82.3992 25.0788C83.4491 25.0788 84.4008 24.8925 85.2508 24.52C86.1009 24.1474 86.8054 23.6326 87.3608 22.9756C87.9331 22.3186 88.326 21.5803 88.5427 20.7607H84.3229C83.9334 21.5667 83.2459 21.9698 82.257 21.9698C81.5932 21.9698 81.0276 21.7699 80.5636 21.3669C80.1166 20.9503 79.8592 20.3543 79.7982 19.5787H88.773ZM84.0892 15.8906C84.5566 16.2767 84.7869 16.7982 84.7869 17.4552H84.7835H79.8185C79.9269 16.7677 80.208 16.2394 80.6551 15.8669C81.119 15.4943 81.6508 15.3081 82.3484 15.3081C83.0461 15.3081 83.6252 15.5011 84.0892 15.8906ZM98.8212 12.2872C100.335 12.2872 101.544 12.7647 102.438 13.7197C103.349 14.6579 103.806 15.9584 103.806 17.6111V24.9061H99.8643V18.1259C99.8643 17.2894 99.6408 16.6425 99.1903 16.1785C98.7433 15.7145 98.1405 15.4842 97.3818 15.4842C96.6232 15.4842 96.0204 15.7145 95.5733 16.1785C95.1263 16.6425 94.8994 17.2894 94.8994 18.1259V24.9061H90.9335V12.4192H94.8994V14.0754C95.3024 13.5233 95.8443 13.0898 96.5216 12.7782C97.2023 12.4497 97.9677 12.2872 98.8178 12.2872H98.8212ZM133.034 18.4611C133.034 18.8201 133.01 19.1926 132.963 19.5787H123.988C124.049 20.3543 124.306 20.9503 124.753 21.3669C125.217 21.7699 125.783 21.9698 126.447 21.9698C127.436 21.9698 128.123 21.5667 128.513 20.7607H132.733C132.516 21.5803 132.123 22.3186 131.551 22.9756C130.995 23.6326 130.291 24.1474 129.441 24.52C128.591 24.8925 127.639 25.0788 126.589 25.0788C125.322 25.0788 124.191 24.818 123.202 24.2964C122.213 23.7749 121.441 23.0298 120.882 22.0578C120.327 21.0892 120.049 19.9546 120.049 18.6575C120.049 17.3604 120.32 16.2259 120.862 15.2573C121.418 14.2887 122.193 13.5436 123.182 13.0186C124.171 12.4937 125.309 12.2363 126.592 12.2363C127.876 12.2363 128.96 12.4903 129.932 12.9983C130.907 13.5063 131.662 14.2277 132.204 15.1692C132.76 16.1073 133.041 17.2046 133.041 18.4577L133.034 18.4611ZM128.977 17.4552C128.977 16.7982 128.746 16.2767 128.282 15.8906C127.818 15.5045 127.239 15.3081 126.542 15.3081C125.844 15.3081 125.312 15.4943 124.848 15.8669C124.401 16.2394 124.12 16.7677 124.015 17.4552H128.977ZM135.08 15.2606C134.585 16.2326 134.338 17.357 134.338 18.6405H134.341C134.341 19.9241 134.589 21.0553 135.083 22.0408C135.594 23.0094 136.282 23.7613 137.149 24.2998C138.016 24.8213 138.971 25.0821 140.024 25.0821C140.935 25.0821 141.731 24.9026 142.412 24.5436C143.106 24.1846 143.648 23.7173 144.034 23.1347V24.9026H148V12.4191H144.034V14.187C143.662 13.6045 143.126 13.1371 142.432 12.7781C141.751 12.4191 140.956 12.2396 140.045 12.2396C138.978 12.2396 138.013 12.497 137.146 13.022C136.279 13.5469 135.591 14.292 135.08 15.2606ZM143.201 16.4053C143.756 16.9573 144.034 17.7092 144.034 18.6643V18.6676C144.034 19.6227 143.756 20.3746 143.201 20.9266C142.659 21.4786 141.995 21.753 141.206 21.753C140.417 21.753 139.743 21.4786 139.188 20.9266C138.646 20.3576 138.375 19.599 138.375 18.6439C138.375 17.6889 138.646 16.9438 139.188 16.4053C139.743 15.8533 140.417 15.5789 141.206 15.5789C141.995 15.5789 142.659 15.8533 143.201 16.4053Z" fill="black"/>
</svg>
