<svg width="132" height="65" viewBox="0 0 132 65" fill="none" xmlns="http://www.w3.org/2000/svg">
<path fill-rule="evenodd" clip-rule="evenodd" d="M0 65V0H131.407L66.4065 65H0ZM75.8909 31.0978H78.7391C82.5417 31.0978 85.5685 29.8391 85.5685 25.8229C85.5685 21.934 82.5417 20.6811 78.7391 20.6811H75.8909V31.0978ZM43.9398 37.8101C45.1619 38.2696 46.5758 38.5448 48.0833 38.5448H48.0877C49.5601 38.5448 50.9374 38.2784 52.1478 37.8452L48.1301 24.8715H48.0423L43.9398 37.8101ZM65.0498 12.2184H77.9839L77.9824 12.2316C90.3472 12.2316 96.1549 16.6357 96.1549 26.2371C96.1549 34.8638 90.1745 40.004 80.0754 40.004H75.8938V52.4303H56.729L54.8321 46.4879C52.805 47.1554 50.5144 47.5213 48.0862 47.5213C45.5981 47.5213 43.2475 47.129 41.1837 46.4309L39.2108 52.4303H27.4651L28.7589 48.9527L28.2847 49.3669C25.356 51.7204 21.6911 53.0158 17.1538 53.1036H16.4791C11.2641 53.1036 6.15458 51.6663 1.83832 49.2088L5.83258 41.2715C10.162 43.83 12.88 44.4008 16.5449 44.3276C18.4462 44.2852 19.8205 43.9412 20.7148 43.0118C21.2578 42.4556 21.5374 41.7516 21.5666 41.0008C21.6003 38.9385 18.6672 37.9711 15.074 36.8631C12.1613 35.9498 8.86377 34.7306 6.27899 32.8366C3.22438 30.587 1.76514 27.7739 1.83832 23.8104C1.88662 20.9168 2.95654 18.3174 4.93391 16.2624C7.77921 13.3249 12.3662 11.5305 17.871 11.5305H17.9002C22.619 11.5408 28.3872 12.8756 32.5498 15.0022L28.0564 22.8298C23.4943 20.6241 21.1963 20.4133 18.5911 20.2816C14.7256 20.0752 12.7658 21.4569 12.7365 22.9469C12.7029 24.7691 16.4059 26.4142 19.8849 27.5339C25.1628 29.2068 31.8765 31.4506 32.8966 37.9315L42.5508 12.2184H53.7505L65.0498 42.9738V12.2184Z" fill="black"/>
</svg>
